<svg xmlns="http://www.w3.org/2000/svg" viewBox="0 0 24 24" fill="#8B5CF6">
  <path d="M18.5 4c-1.4 0-2.7.5-3.6 1.5L5.2 15.2c-.7.7-1.2 1.6-1.2 2.6 0 2 1.6 3.7 3.7 3.7.9 0 1.8-.4 2.5-1L19.8 11c.2-.2.2-.6 0-.8-.2-.2-.6-.2-.8 0L9.5 19.7c-.5.4-1 .6-1.7.6-1.4 0-2.5-1.1-2.5-2.5 0-.6.3-1.2.8-1.7L15.6 6.4c.7-.7 1.6-1.1 2.6-1.1 1.9 0 3.5 1.6 3.5 3.5 0 1-.4 1.9-1.1 2.6l-9.6 9.6c-1.2 1.2-2.8 1.8-4.5 1.8-3.4 0-6.1-2.8-6.1-6.1 0-1.7.7-3.3 1.8-4.5l9.8-9.8c.2-.2.2-.6 0-.8-.2-.2-.6-.2-.8 0l-9.8 9.8C1 12.9.2 14.9.2 17c0 4 3.3 7.3 7.3 7.3 2.1 0 4.1-.8 5.6-2.3l9.6-9.6c.9-.9 1.4-2.1 1.4-3.5.1-2.7-2.1-4.9-4.8-4.9h-.8z" />
</svg>